<?xml version="1.0" encoding="utf-8"?>
<!-- Generator: Adobe Illustrator 18.1.1, SVG Export Plug-In . SVG Version: 6.00 Build 0)  -->
<!DOCTYPE svg PUBLIC "-//W3C//DTD SVG 1.1//EN" "http://www.w3.org/Graphics/SVG/1.1/DTD/svg11.dtd">
<svg version="1.1" xmlns="http://www.w3.org/2000/svg" xmlns:xlink="http://www.w3.org/1999/xlink" x="0px" y="0px" width="1152px"
	 height="1152px" viewBox="0 0 1152 1152" enable-background="new 0 0 1152 1152" xml:space="preserve">
<g id="Ebene_2" display="none">
	<rect y="1" display="inline" fill="#FFFFFF" width="500" height="500"/>
</g>
<g id="Ebene_1">
	<path fill="#B1B1B1" d="M96,364c6.6,0,12-5.4,12-12c0-6.6-5.4-12-12-12s-12,5.4-12,12C84,358.6,89.4,364,96,364"/>
	<g>
		<g opacity="0.9">
			<g>
				<path fill="#FFFFFF" d="M960,124c33.1,0,60-26.9,60-60S993.1,4,960,4s-60,26.9-60,60S926.9,124,960,124"/>
			</g>
		</g>
	</g>
	<polygon fill="#009650" points="986.2,64 946.4,39.7 946.4,88.3 	"/>
	<g>
		<g opacity="0.9">
			<g>
				<path fill="#FFFFFF" d="M832,124c33.1,0,60-26.9,60-60S865.1,4,832,4s-60,26.9-60,60S798.9,124,832,124"/>
			</g>
		</g>
	</g>
	<polygon fill="#9C9B9B" points="858.2,64 818.4,39.7 818.4,88.3 	"/>
	<polygon fill="#FFFFFF" points="43.8,21.6 64,64 43.8,105.6 54.4,105.6 75.8,64 54.4,21.6 	"/>
	<polygon fill="#FFFFFF" points="212.2,21.6 192,64 212.2,105.6 201.6,105.6 180.2,64 201.6,21.6 	"/>
	<polygon fill="#009650" points="299.8,21.6 320,64 299.8,105.6 310.4,105.6 331.8,64 310.4,21.6 	"/>
	<polygon fill="#009650" points="468.2,21.6 448,64 468.2,105.6 457.6,105.6 436.2,64 457.6,21.6 	"/>
	<polygon fill="#6F6F6E" points="555.8,21.6 565.9,42.8 555.8,63.6 561.1,63.6 571.8,42.8 561.1,21.6 	"/>
	<polygon fill="#6F6F6E" points="640,21.6 629.9,42.8 640,63.6 634.7,63.6 624,42.8 634.7,21.6 	"/>
	<path fill="#C1403A" d="M41,274H23.5l-7.5,7.5V299c0,2.8,2.2,5,5,5h20c2.8,0,5-2.2,5-5v-20C46,276.2,43.8,274,41,274z"/>
	<g>
		<path fill="#FFFFFF" d="M19.9,293.9V285h3.7c1.2,0,2,0.2,2.5,0.5c0.7,0.5,1,1.3,1,2.2c0,1-0.4,1.9-1.1,2.3
			c-0.7,0.4-1.6,0.5-2.6,0.5h-1.7v3.3H19.9z M23,289.2c0.9,0,1.4-0.1,1.8-0.3c0.3-0.2,0.5-0.6,0.5-1.1c0-0.5-0.2-0.8-0.5-1.1
			c-0.3-0.3-0.8-0.3-1.7-0.3h-1.7v2.8H23z"/>
		<path fill="#FFFFFF" d="M28.1,285h2.7c1.6,0,2.2,0.1,2.9,0.5c1.2,0.6,1.8,2.1,1.8,3.9c0,1.4-0.4,2.7-1.1,3.4
			c-0.8,0.8-1.9,1.1-3.7,1.1h-2.6V285z M30.9,292.5c1.2,0,1.9-0.3,2.4-0.8c0.5-0.5,0.6-1.3,0.6-2.4c0-1-0.2-1.8-0.7-2.3
			c-0.4-0.5-1-0.7-2.2-0.7h-1.3v6.2H30.9z"/>
		<path fill="#FFFFFF" d="M36.9,293.9V285H43v1.4h-4.5v2.3h4.1v1.4h-4.1v3.8H36.9z"/>
	</g>
	<g>
		<path fill="#F76F69" d="M22.2,281.5c0.7,0,1.3-0.6,1.3-1.3V274l-7.5,7.5H22.2z"/>
	</g>
	<g>
		<defs>
			<rect id="SVGID_1_" x="84" y="340" width="24" height="24"/>
		</defs>
		<clipPath id="SVGID_2_">
			<use xlink:href="#SVGID_1_"  overflow="visible"/>
		</clipPath>
	</g>
	<g>
		<defs>
			<rect id="SVGID_3_" x="84" y="340" width="24" height="24"/>
		</defs>
		<clipPath id="SVGID_4_">
			<use xlink:href="#SVGID_3_"  overflow="visible"/>
		</clipPath>
	</g>
	<g>
		<polygon fill="#FFFFFF" points="98.5,356.5 94.8,352.4 94.8,342.1 96.8,342.1 96.8,351.6 100.1,355.1 		"/>
	</g>
	<polygon fill="#6F6F6E" points="42,408.8 32,416 22,408.8 22,411.2 22,413.6 32,420.8 42,413.6 	"/>
	<polygon fill="#009550" points="490,408.8 480,416 470,408.8 470,411.2 470,413.6 480,420.8 490,413.6 	"/>
	<polygon fill="#009650" points="156.6,411.3 160,416 156.6,420.7 157.8,420.7 158.9,420.7 162.2,416 158.9,411.3 	"/>
	<polygon fill="#6F6F6E" points="220.6,411.3 224,416 220.6,420.7 221.8,420.7 222.9,420.7 226.2,416 222.9,411.3 	"/>
	<polygon fill="#FFFFFF" points="284,410 288.3,416 284,422 285.4,422 286.9,422 291.2,416 286.9,410 	"/>
	<polygon fill="#009650" points="348,410 352.3,416 348,422 349.4,422 350.9,422 355.2,416 350.9,410 	"/>
	<polygon fill="#6F6F6E" points="412,410 416.3,416 412,422 413.4,422 414.9,422 419.2,416 414.9,410 	"/>
	<polygon fill="#FFFFFF" points="92.6,411.3 96,416 92.6,420.7 93.8,420.7 94.9,420.7 98.2,416 94.9,411.3 	"/>
	<polygon fill="#6F6F6E" points="30.8,492 27.9,492 25,492 33.6,480 25,468 27.9,468 30.8,468 39.4,480 	"/>
	<polygon fill="#009650" points="48.8,159.7 64,192 48.8,223.7 56.8,223.7 71.9,192.1 56.8,159.7 	"/>
	<polygon fill="#009650" points="207.2,159.7 192,192 207.2,223.7 199.2,223.7 184.1,192.1 199.2,159.7 	"/>
	<polygon fill="#CDDC00" points="304.8,159.7 320,192 304.8,223.7 312.8,223.7 327.9,192.1 312.8,159.7 	"/>
	<polygon fill="#CDDC00" points="463.2,159.7 448,192 463.2,223.7 455.2,223.7 440.1,192.1 455.2,159.7 	"/>
	<polygon fill="#6F6F6E" points="560.8,159.7 576,192 560.8,223.7 568.8,223.7 583.9,192.1 568.8,159.7 	"/>
	<polygon fill="#6F6F6E" points="719.2,159.7 704,192 719.2,223.7 711.2,223.7 696.1,192.1 711.2,159.7 	"/>
	<g>
		<defs>
			<rect id="SVGID_5_" x="278" y="278" width="20" height="20"/>
		</defs>
		<clipPath id="SVGID_6_">
			<use xlink:href="#SVGID_5_"  overflow="visible"/>
		</clipPath>
		<path clip-path="url(#SVGID_6_)" fill="#FFFFFF" d="M288,297c5,0,9-4,9-9s-4-9-9-9s-9,4-9,9S283,297,288,297"/>
		<path clip-path="url(#SVGID_6_)" fill="none" stroke="#009550" stroke-width="2" d="M288,297c5,0,9-4,9-9s-4-9-9-9s-9,4-9,9
			S283,297,288,297z"/>
	</g>
	<g>
		<defs>
			<rect id="SVGID_7_" x="342" y="278" width="20" height="20"/>
		</defs>
		<clipPath id="SVGID_8_">
			<use xlink:href="#SVGID_7_"  overflow="visible"/>
		</clipPath>
		<path clip-path="url(#SVGID_8_)" fill="#009650" d="M352,297c5,0,9-4,9-9s-4-9-9-9s-9,4-9,9S347,297,352,297"/>
		<path clip-path="url(#SVGID_8_)" fill="#009650" stroke="#009650" stroke-width="2" stroke-miterlimit="10" d="M352,297
			c5,0,9-4,9-9s-4-9-9-9s-9,4-9,9S347,297,352,297z"/>
	</g>
	<g>
		<path fill="#FFFFFF" d="M416,299c6.1,0,11-4.9,11-11c0-6.1-4.9-11-11-11s-11,4.9-11,11C405,294.1,409.9,299,416,299"/>
		<path fill="none" stroke="#009550" stroke-width="2" d="M416,299c6.1,0,11-4.9,11-11c0-6.1-4.9-11-11-11s-11,4.9-11,11
			C405,294.1,409.9,299,416,299z"/>
	</g>
	<path fill="#009550" d="M480,300c6.6,0,12-5.4,12-12s-5.4-12-12-12s-12,5.4-12,12S473.4,300,480,300"/>
	<g>
		<path fill="#009650" d="M544,299c6.1,0,11-4.9,11-11c0-6.1-4.9-11-11-11s-11,4.9-11,11C533,294.1,537.9,299,544,299"/>
		<path fill="none" stroke="#FFFFFF" stroke-width="2" d="M544,299c6.1,0,11-4.9,11-11c0-6.1-4.9-11-11-11s-11,4.9-11,11
			C533,294.1,537.9,299,544,299z"/>
	</g>
	<path fill="#FFFFFF" d="M608,300c6.6,0,12-5.4,12-12s-5.4-12-12-12s-12,5.4-12,12S601.4,300,608,300"/>
	<g>
		<rect x="142.5" y="334.7" fill="#ECECEC" width="34" height="34"/>
		<g>
			<defs>
				<rect id="SVGID_9_" x="142" y="334" width="36" height="36"/>
			</defs>
			<clipPath id="SVGID_10_">
				<use xlink:href="#SVGID_9_"  overflow="visible"/>
			</clipPath>
			<rect x="143" y="335" clip-path="url(#SVGID_10_)" fill="none" stroke="#D9D9D9" width="34" height="34"/>
		</g>
	</g>
	<g>
		<rect x="206.5" y="334.7" fill="#ECECEC" width="34" height="34"/>
		<g>
			<defs>
				<rect id="SVGID_11_" x="206" y="334" width="36" height="36"/>
			</defs>
			<clipPath id="SVGID_12_">
				<use xlink:href="#SVGID_11_"  overflow="visible"/>
			</clipPath>
			<rect x="207" y="335" clip-path="url(#SVGID_12_)" fill="none" stroke="#D9D9D9" width="34" height="34"/>
		</g>
	</g>
	<polygon fill="#FFFFFF" points="162.1,470.2 155.8,480 162.1,489.6 164.2,489.6 166.4,489.6 160,480 166.4,470.2 	"/>
	<polygon fill="#FFFFFF" points="94.9,297.7 101.3,287.9 94.9,278.3 92.8,278.3 90.7,278.3 97.1,287.9 90.7,297.7 	"/>
	<polygon fill="#4D4D4D" points="232.7,340 222.6,354.9 217,348.5 214,351.1 223,361.6 223,361.5 223.1,361.6 225.3,358.1 
		236,342.3 	"/>
	<polygon fill="#4D4D4D" points="232.7,340 222.6,354.9 217,348.5 214,351.1 223,361.6 223,361.5 223.1,361.6 225.3,358.1 
		236,342.3 	"/>
	<polygon fill="#4D4D4D" points="296.7,340 286.6,354.9 281,348.5 278,351.1 287,361.6 287,361.5 287.1,361.6 289.3,358.1 
		300,342.3 	"/>
	<polygon fill="#4D4D4D" points="296.7,340 286.6,354.9 281,348.5 278,351.1 287,361.6 287,361.5 287.1,361.6 289.3,358.1 
		300,342.3 	"/>
	<rect x="526.3" y="337" fill="#808080" width="36" height="6"/>
	<rect x="526.3" y="349" fill="#808080" width="36" height="6"/>
	<rect x="526.3" y="361" fill="#808080" width="36" height="6"/>
	<rect x="578" y="322" fill="#C6C6C5" width="60" height="60"/>
	<line fill="none" stroke="#FFFFFF" stroke-width="2" x1="599.8" y1="342.8" x2="618.4" y2="361.4"/>
	<line fill="none" stroke="#FFFFFF" stroke-width="2" x1="618.4" y1="342.8" x2="599.8" y2="361.4"/>
	<rect x="1116" y="1118" fill="#808080" width="8" height="2"/>
	<g>
		<polygon fill="#FFFFFF" points="673.2,364 673.2,353.2 684,353.2 684,350.9 673.2,350.9 673.2,340 670.8,340 670.8,350.9 
			660,350.9 660,353.2 670.8,353.2 670.8,364 		"/>
	</g>
	<polygon fill="#6F6F6E" points="534,421 544,413.8 554,421 554,418.6 554,416.2 544,409 534,416.2 	"/>
	<polygon fill="#009550" points="598,421 608,413.8 618,421 618,418.6 618,416.2 608,409 598,416.2 	"/>
	<polygon fill="#6F6F6E" points="97.2,492 100.1,492 103,492 94.4,480 103,468 100.1,468 97.2,468 88.6,480 	"/>
	<polygon fill="#E2E2E2" points="30.8,556 27.9,556 25,556 33.6,544 25,532 27.9,532 30.8,532 39.4,544 	"/>
	<polygon fill="#E2E2E2" points="97.2,556 100.1,556 103,556 94.4,544 103,532 100.1,532 97.2,532 88.6,544 	"/>
	<polygon fill="#009650" points="30.8,620 27.9,620 25,620 33.6,608 25,596 27.9,596 30.8,596 39.4,608 	"/>
	<polygon fill="#009650" points="97.2,620 100.1,620 103,620 94.4,608 103,596 100.1,596 97.2,596 88.6,608 	"/>
	<rect x="406" y="478" fill="#6F6F6E" width="20" height="4"/>
	<rect x="414" y="470" fill="#6F6F6E" width="4" height="20"/>
	<rect x="470" y="478" fill="#6F6F6E" width="20" height="4"/>
	<rect x="534" y="478" fill="#009550" width="20" height="4"/>
	<rect x="542" y="470" fill="#009550" width="4" height="20"/>
	<rect x="598" y="478" fill="#009550" width="20" height="4"/>
	<g>
		<defs>
			<rect id="SVGID_13_" x="206" y="462" width="36" height="36"/>
		</defs>
		<clipPath id="SVGID_14_">
			<use xlink:href="#SVGID_13_"  overflow="visible"/>
		</clipPath>
		<path clip-path="url(#SVGID_14_)" fill="#E5E5E5" d="M224,497c9.4,0,17-7.6,17-17s-7.6-17-17-17s-17,7.6-17,17S214.6,497,224,497"
			/>
		<path clip-path="url(#SVGID_14_)" fill="none" stroke="#CCCCCC" d="M224,497c9.4,0,17-7.6,17-17s-7.6-17-17-17s-17,7.6-17,17
			S214.6,497,224,497z"/>
	</g>
	<g>
		<defs>
			<rect id="SVGID_15_" x="270" y="462" width="36" height="36"/>
		</defs>
		<clipPath id="SVGID_16_">
			<use xlink:href="#SVGID_15_"  overflow="visible"/>
		</clipPath>
		<path clip-path="url(#SVGID_16_)" fill="#E5E5E5" d="M288,497c9.4,0,17-7.6,17-17s-7.6-17-17-17s-17,7.6-17,17S278.6,497,288,497"
			/>
		<path clip-path="url(#SVGID_16_)" fill="none" stroke="#CCCCCC" d="M288,497c9.4,0,17-7.6,17-17s-7.6-17-17-17s-17,7.6-17,17
			S278.6,497,288,497z"/>
		<path clip-path="url(#SVGID_16_)" fill="#009650" d="M288,490c5.5,0,10-4.5,10-10s-4.5-10-10-10s-10,4.5-10,10S282.5,490,288,490"
			/>
	</g>
	<g>
		<defs>
			<rect id="SVGID_17_" x="334" y="462" width="36" height="36"/>
		</defs>
		<clipPath id="SVGID_18_">
			<use xlink:href="#SVGID_17_"  overflow="visible"/>
		</clipPath>
		<path clip-path="url(#SVGID_18_)" fill="#808080" d="M352.1,474.8c-1.7,0-3-1.4-3-3s1.4-3,3-3s3,1.4,3,3S353.8,474.8,352.1,474.8
			 M354.9,490.6h-5.6v-13.1h5.6V490.6z M352,462c-9.9,0-18,8.1-18,18s8.1,18,18,18c9.9,0,18-8.1,18-18S361.9,462,352,462"/>
	</g>
	<polygon fill="#4D4D4D" points="687.4,394 667.2,423.8 656,410.9 650,416.2 668,437.1 668,436.9 668.2,437.1 672.7,430.1 
		694,398.5 	"/>
	<g>
		<defs>
			<rect id="SVGID_19_" x="651" y="459" width="42" height="42"/>
		</defs>
		<clipPath id="SVGID_20_">
			<use xlink:href="#SVGID_19_"  overflow="visible"/>
		</clipPath>
		<path clip-path="url(#SVGID_20_)" fill="#6F6F6E" d="M683.1,489.6l-1.7,1.7c-0.3,0.3-1.2,0.5-1.2,0.5c-5.3,0-10.4-2-14.2-5.8
			c-3.8-3.8-5.9-8.9-5.8-14.3c0,0,0.2-0.9,0.5-1.2l1.7-1.7c0.6-0.6,1.8-0.9,2.6-0.6l0.4,0.1c0.8,0.3,1.7,1.2,1.9,2l0.8,3.1
			c0.2,0.8-0.1,2-0.7,2.7l-1.1,1.1c1.1,4.1,4.3,7.3,8.4,8.4l1.1-1.1c0.6-0.6,1.8-0.9,2.7-0.7l3.1,0.9c0.8,0.2,1.8,1.1,2,1.9l0.1,0.4
			C684,487.8,683.7,489,683.1,489.6 M672,459c-11.6,0-21,9.4-21,21s9.4,21,21,21s21-9.4,21-21S683.6,459,672,459"/>
	</g>
	<rect x="534" y="542" fill="#FFFFFF" width="20" height="4"/>
	<rect x="542" y="534" fill="#FFFFFF" width="4" height="20"/>
	<rect x="598" y="542" fill="#FFFFFF" width="20" height="4"/>
	<g>
		<path fill="#009650" d="M418.2,608c0,1.2-1,2.2-2.2,2.2s-2.2-1-2.2-2.2c0-1.2,1-2.2,2.2-2.2S418.2,606.8,418.2,608 M417.7,618.9
			v-2.9h-3.5v2.9c-4.7-0.7-8.4-4.4-9.1-9.1h2.9v-3.5h-2.9c0.7-4.7,4.4-8.4,9.1-9.1v2.9h3.5v-2.9c4.7,0.7,8.4,4.4,9.1,9.1h-2.9v3.5
			h2.9C426.1,614.4,422.4,618.1,417.7,618.9 M434,606.3h-3.6c-0.8-6.6-6-11.9-12.7-12.7V590h-3.5v3.6c-6.6,0.8-11.9,6-12.7,12.7H398
			v3.5h3.6c0.8,6.6,6,11.9,12.7,12.7v3.6h3.5v-3.6c6.6-0.8,11.9-6,12.7-12.7h3.6V606.3z"/>
	</g>
	<g>
		<path fill="#FFFFFF" d="M482.2,608c0,1.2-1,2.2-2.2,2.2s-2.2-1-2.2-2.2c0-1.2,1-2.2,2.2-2.2S482.2,606.8,482.2,608 M481.7,618.9
			v-2.9h-3.5v2.9c-4.7-0.7-8.4-4.4-9.1-9.1h2.9v-3.5h-2.9c0.7-4.7,4.4-8.4,9.1-9.1v2.9h3.5v-2.9c4.7,0.7,8.4,4.4,9.1,9.1h-2.9v3.5
			h2.9C490.1,614.4,486.4,618.1,481.7,618.9 M498,606.3h-3.6c-0.8-6.6-6-11.9-12.7-12.7V590h-3.5v3.6c-6.6,0.8-11.9,6-12.7,12.7H462
			v3.5h3.6c0.8,6.6,6,11.9,12.7,12.7v3.6h3.5v-3.6c6.6-0.8,11.9-6,12.7-12.7h3.6V606.3z"/>
	</g>
	<polygon fill="#009550" points="528,588.8 528,618 538.3,618 544,627.2 549.7,618 560,618 560,588.8 	"/>
	<polygon fill="#FFFFFF" points="592,588.8 592,618 602.3,618 608,627.2 613.7,618 624,618 624,588.8 	"/>
	<polygon fill="#009550" points="667.7,550.5 666.2,550.5 664.8,550.5 669.1,544.5 664.8,538.5 666.2,538.5 667.7,538.5 672,544.5 	
		"/>
	<polygon fill="#009550" points="674.9,550.5 673.4,550.5 672,550.5 676.3,544.5 672,538.5 673.4,538.5 674.9,538.5 679.2,544.5 	
		"/>
	<polygon fill="#FFFFFF" points="731.7,550.5 730.2,550.5 728.8,550.5 733.1,544.5 728.8,538.5 730.2,538.5 731.7,538.5 736,544.5 	
		"/>
	<polygon fill="#FFFFFF" points="738.9,550.5 737.4,550.5 736,550.5 740.3,544.5 736,538.5 737.4,538.5 738.9,538.5 743.2,544.5 	
		"/>
	<polygon fill="#009650" points="678,597.6 678,594.7 672,590.4 666,594.7 666,596.2 666,597.6 670,594.4 670,620.8 666,617.6 
		666,619 666,620.5 672,624.8 678,620.5 678,617.6 674,620.8 674,594.4 	"/>
	<polygon fill="#FFFFFF" points="742,597.6 742,594.7 736,590.4 730,594.7 730,596.2 730,597.6 734,594.4 734,620.8 730,617.6 
		730,619 730,620.5 736,624.8 742,620.5 742,617.6 738,620.8 738,594.4 	"/>
	<g>
		<g>
			<rect x="198.4" y="287" fill="#9C9B9B" width="50" height="2"/>
		</g>
		<g>
			<polygon fill="#9C9B9B" points="242,298.6 240.4,297.4 247.2,288 240.4,278.6 242,277.4 249.6,288 			"/>
		</g>
	</g>
	<g>
		<defs>
			<rect id="SVGID_21_" x="135.6" y="287" width="50" height="2"/>
		</defs>
		<clipPath id="SVGID_22_">
			<use xlink:href="#SVGID_21_"  overflow="visible"/>
		</clipPath>
		<g clip-path="url(#SVGID_22_)">
			<rect x="135.6" y="287" fill="#9C9B9B" width="50" height="2"/>
		</g>
	</g>
	<path fill="#009650" d="M724.6,360.7v-19.4l6.2,2.6v11.9v0.3v7.4L724.6,360.7z M732.1,356.1v-0.3v-11.9l7-3.5v12v0.5v6l-7,4.5
		V356.1z M740.4,358.8v-6v-0.5v-12l6.6,2.7v19.2L740.4,358.8z M722,337v25.2l9.5,4.6l8.2-5.3l9.8,5.5v-25.6l-9.8-4.3l-8.2,4.2
		L722,337z"/>
	<rect x="731" y="406" fill="#009650" width="16" height="4"/>
	<rect x="731" y="414" fill="#009650" width="16" height="4"/>
	<rect x="731" y="422" fill="#009650" width="16" height="4"/>
	<rect x="725" y="406" fill="#009650" width="4" height="4"/>
	<rect x="725" y="414" fill="#009650" width="4" height="4"/>
	<rect x="725" y="422" fill="#009650" width="4" height="4"/>
	<rect x="24" y="664" fill="#4D4D4D" width="80" height="80"/>
	<polygon fill="#FFFFFF" points="77.3,715.9 65.4,704 77.3,692.1 75.9,690.7 64,702.6 52.1,690.7 50.7,692.1 62.6,704 50.7,715.9 
		52.1,717.3 64,705.4 75.9,717.3 	"/>
	<rect x="152" y="664" fill="#808080" width="80" height="80"/>
	<polygon fill="#FFFFFF" points="205.3,715.9 193.4,704 205.3,692.1 203.9,690.7 192,702.6 180.1,690.7 178.7,692.1 190.6,704 
		178.7,715.9 180.1,717.3 192,705.4 203.9,717.3 	"/>
	<polygon fill="#FFFFFF" points="737.2,492 740.1,492 743,492 734.4,480 743,468 740.1,468 737.2,468 728.6,480 	"/>
	<g id="Icons">
		<path fill="#808080" d="M428.9,346.9c0-7.1-5.8-12.9-12.9-12.9c-7.1,0-12.9,5.8-12.9,12.9c0,2.4,0.7,4.7,1.9,6.7l9.7,16.5h2.6
			l9.7-16.5C428.2,351.6,428.9,349.3,428.9,346.9z"/>
		<circle fill="#FFFFFF" cx="416" cy="346.9" r="6.4"/>
	</g>
	<g id="Icons_13_">
		<path fill="#B1B1B1" d="M43,347.6c0-6.1-4.9-11-11-11c-6.1,0-11,4.9-11,11c0,2.1,0.6,4,1.6,5.7l8.3,14.1h2.2l8.3-14.1
			C42.4,351.6,43,349.7,43,347.6z"/>
		<circle fill="#FFFFFF" cx="32" cy="347.6" r="5.5"/>
	</g>
	<g id="Icons_1_">
		<g>
			<path fill="#009650" d="M492.9,538.9c0-7.1-5.8-12.9-12.9-12.9c-7.1,0-12.9,5.8-12.9,12.9c0,2.4,0.7,4.7,1.9,6.7l9.7,16.5h2.6
				l9.7-16.5C492.2,543.6,492.9,541.3,492.9,538.9z"/>
			<circle fill="#FFFFFF" cx="480" cy="538.9" r="6.4"/>
		</g>
	</g>
	<g id="Icons_2_">
		<path fill="#808080" d="M164.4,590h-8.8c0,0,0,0-0.1,0c-7.5,0-13.6,6.1-13.6,13.6c0,5.7,3.5,10.6,8.5,12.6l-1.4,9.8h2.6l8.5-8.8
			h4.2c7.5,0,13.6-6.1,13.6-13.6C178,596.1,171.9,590,164.4,590z"/>
		<g>
			<polygon fill="#FFFFFF" points="161.3,600.1 158.4,600.1 158.4,612.1 161.3,612.1 161.3,609.6 			"/>
			<rect x="158.4" y="595.1" fill="#FFFFFF" width="2.9" height="2.6"/>
		</g>
	</g>
	<g id="Icons_3_">
		<g>
			<path fill="#009650" d="M164.4,526h-8.8c0,0,0,0-0.1,0c-7.5,0-13.6,6.1-13.6,13.6c0,5.7,3.5,10.6,8.5,12.6l-1.4,9.8h2.6l8.5-8.8
				h4.2c7.5,0,13.6-6.1,13.6-13.6C178,532.1,171.9,526,164.4,526z"/>
			<g>
				<polygon fill="#FFFFFF" points="161.3,536.1 158.4,536.1 158.4,548.1 161.3,548.1 161.3,545.6 				"/>
				<rect x="158.4" y="531.1" fill="#FFFFFF" width="2.9" height="2.6"/>
			</g>
		</g>
	</g>
	<g id="Icons_4_">
		<path fill="#808080" d="M358.1,354.5l-2.2,0c2-2.2,3-5.1,3-8.1c0-3.3-1.3-6.4-3.6-8.8c-2.3-2.3-5.4-3.6-8.8-3.6
			c-6.8,0-12.4,5.6-12.4,12.4c0,6.8,5.6,12.4,12.4,12.4c3,0,5.9-1.1,8.1-3l0,2.2l11.4,11.9l4-4L358.1,354.5z M346.4,357
			c-5.8,0-10.5-4.7-10.5-10.5c0-5.8,4.7-10.5,10.5-10.5c2.8,0,5.5,1.1,7.4,3.1c2,2,3.1,4.6,3.1,7.4c0,2.8-1.1,5.5-3.1,7.4
			C351.9,355.9,349.3,357,346.4,357z"/>
	</g>
	<g id="Icons_5_">
		<path fill="#009650" d="M422.1,546.5l-2.2,0c2-2.2,3-5.1,3-8.1c0-3.3-1.3-6.4-3.6-8.8c-2.3-2.3-5.4-3.6-8.8-3.6
			c-6.8,0-12.4,5.6-12.4,12.4c0,6.8,5.6,12.4,12.4,12.4c3,0,5.9-1.1,8.1-3l0,2.2l11.4,11.9l4-4L422.1,546.5z M410.4,549
			c-5.8,0-10.5-4.7-10.5-10.5s4.7-10.5,10.5-10.5c2.8,0,5.5,1.1,7.4,3.1c2,2,3.1,4.6,3.1,7.4c0,2.8-1.1,5.5-3.1,7.4
			C415.9,547.9,413.3,549,410.4,549z"/>
	</g>
	<g id="Icons_6_">
		<path fill="#999999" d="M480,334C480,334,479.9,334,480,334C479.9,334,479.9,334,480,334C479.9,334,479.9,334,480,334
			c-9.9,0-18,8-18,17.9s8,17.9,17.9,17.9c0,0,0,0,0,0c0,0,0,0,0,0c0,0,0,0,0,0c9.8,0,17.8-8,17.8-17.9S489.8,334,480,334z
			 M475.3,336.5c-1.2,1.4-2.2,3.4-2.9,5.8c-1.5-0.4-2.9-0.8-4.1-1.4C470.2,338.9,472.6,337.4,475.3,336.5z M467,342.3
			c1.4,0.7,3.1,1.3,4.8,1.7c-0.5,2.1-0.8,4.5-0.9,7h-7.1C464,347.8,465.2,344.8,467,342.3z M467,361.4c-1.8-2.4-2.9-5.3-3.1-8.5h7.1
			c0.1,2.4,0.4,4.7,0.8,6.8C470.1,360.1,468.4,360.7,467,361.4z M468.3,362.9c1.2-0.6,2.6-1,4.1-1.4c0.7,2.4,1.7,4.3,2.9,5.8
			C472.6,366.4,470.2,364.9,468.3,362.9z M479,367.8c-1.9-0.6-3.7-3.1-4.8-6.7c1.5-0.3,3.1-0.4,4.8-0.5V367.8z M479,358.8
			c-1.8,0-3.6,0.2-5.3,0.5c-0.5-1.9-0.7-4.1-0.8-6.4h6.1V358.8z M479,351.1h-6.1c0.1-2.4,0.3-4.6,0.8-6.6c1.7,0.3,3.4,0.5,5.3,0.5
			V351.1z M479,343.1c-1.7,0-3.3-0.2-4.8-0.5c1.1-3.5,2.8-6,4.8-6.7V343.1z M492.8,342.3c1.8,2.5,3,5.5,3.1,8.7h-7.1
			c-0.1-2.5-0.4-4.9-0.9-7C489.8,343.6,491.4,343,492.8,342.3z M491.5,340.9c-1.2,0.6-2.6,1-4,1.4c-0.7-2.3-1.7-4.3-2.9-5.7
			C487.3,337.4,489.6,338.9,491.5,340.9z M480.8,336c2,0.6,3.7,3.1,4.8,6.7c-1.5,0.3-3.2,0.4-4.8,0.5V336z M480.8,345
			c1.9,0,3.6-0.2,5.3-0.5c0.5,2,0.8,4.2,0.8,6.6h-6.2V345z M480.8,352.9h6.1c-0.1,2.3-0.4,4.5-0.8,6.4c-1.7-0.3-3.5-0.5-5.3-0.5
			V352.9z M480.8,367.8v-7.1c1.7,0,3.3,0.2,4.8,0.5C484.5,364.7,482.8,367.2,480.8,367.8z M484.6,367.2c1.2-1.4,2.2-3.4,2.9-5.7
			c1.5,0.4,2.8,0.8,4,1.4C489.6,364.9,487.3,366.4,484.6,367.2z M492.8,361.5c-1.4-0.7-3-1.3-4.8-1.7c0.5-2.1,0.8-4.4,0.9-6.8h7.1
			C495.7,356.1,494.6,359,492.8,361.5z"/>
	</g>
	<g id="Icons_7_">
		<g>
			<polygon fill="#999999" points="227.2,612 227.2,612 227.2,612 227.2,612 227.2,612 			"/>
			<polygon fill="#999999" points="227.2,612 227.2,612 227.2,612 			"/>
			<polygon fill="#808080" points="242,601.6 242,594.8 235.2,594.8 238,597.6 228.7,606.9 216.6,594.9 206,605.4 206,608 
				216.6,597.4 228.7,609.5 239.3,598.9 			"/>
			<polygon fill="#808080" points="215.7,600.6 206,610.3 206,613.8 206,621.2 215.7,621.2 			"/>
			<polygon fill="#808080" points="227.8,610.9 227.8,610.9 217.5,600.6 217.5,621.2 227.8,621.2 			"/>
			<polygon fill="#808080" points="238.8,601.6 229.5,610.9 229.5,614.4 229.5,621.2 238.8,621.2 			"/>
		</g>
	</g>
	<g id="Icons_8_">
		<g>
			<polygon fill="#009650" points="227.2,548 227.1,548 227.1,548 227.2,548 227.2,548 			"/>
			<polygon fill="#009650" points="227.2,548 227.2,548 227.2,548 			"/>
			<polygon fill="#009650" points="242,537.6 242,530.8 235.2,530.8 238,533.6 228.7,542.9 216.6,530.9 206,541.4 206,544 
				216.6,533.4 228.7,545.5 239.3,534.9 			"/>
			<polygon fill="#009650" points="215.7,536.6 206,546.3 206,549.8 206,557.2 215.7,557.2 			"/>
			<polygon fill="#009650" points="227.8,546.9 227.8,546.9 217.5,536.6 217.5,557.2 227.8,557.2 			"/>
			<polygon fill="#009650" points="238.8,537.6 229.5,546.9 229.5,550.4 229.5,557.2 238.8,557.2 			"/>
		</g>
	</g>
	<g id="Icons_9_">
		<g>
			<path fill="#808080" d="M278.6,594.2H270l0.4,2.7l6.9,0.8l5.2,19.2c-0.4,0.5-0.6,1.2-0.6,1.9c0,1.7,1.4,3.1,3.1,3.1
				s3.1-1.4,3.1-3.1c0-0.3,0-0.6-0.1-0.9H298c-0.1,0.3-0.1,0.6-0.1,0.9c0,1.7,1.4,3.1,3.1,3.1c1.7,0,3.1-1.4,3.1-3.1
				c0-1.7-1.4-3-3-3.1l0,0h-16.5l-0.9-3.3l19-2.1l3.4-12.5h-26.4L278.6,594.2z"/>
		</g>
	</g>
	<g id="Icons_10_">
		<g>
			<path fill="#009650" d="M278.6,530.2H270l0.4,2.7l6.9,0.8l5.2,19.2c-0.4,0.5-0.6,1.2-0.6,1.9c0,1.7,1.4,3.1,3.1,3.1
				c1.7,0,3.1-1.4,3.1-3.1c0-0.3,0-0.6-0.1-0.9H298c-0.1,0.3-0.1,0.6-0.1,0.9c0,1.7,1.4,3.1,3.1,3.1c1.7,0,3.1-1.4,3.1-3.1
				c0-1.7-1.4-3-3-3.1l0,0h-16.5l-0.9-3.3l19-2.1l3.4-12.5h-26.4L278.6,530.2z"/>
		</g>
	</g>
	<g id="Icons_11_">
		<g>
			<g>
				<g>
					<g enable-background="new    ">
						<g>
							<defs>
								<polygon id="SVGID_23_" points="336.1,617.3 336.2,600.5 350.9,609 350.9,625.9 								"/>
							</defs>
							<clipPath id="SVGID_24_">
								<use xlink:href="#SVGID_23_"  overflow="visible"/>
							</clipPath>
							<g clip-path="url(#SVGID_24_)">
								<g>
									<g>
										<g>
											<polyline fill="#808080" points="350.9,609 336.2,600.5 336.1,617.3 350.9,625.9 350.9,609 											"/>
										</g>
									</g>
								</g>
							</g>
						</g>
					</g>
				</g>
			</g>
			<g>
				<g>
					<g enable-background="new    ">
						<g>
							<defs>
								<polygon id="SVGID_25_" points="337.4,598.6 352,590.1 366.7,598.7 352.1,607.1 								"/>
							</defs>
							<clipPath id="SVGID_26_">
								<use xlink:href="#SVGID_25_"  overflow="visible"/>
							</clipPath>
							<g clip-path="url(#SVGID_26_)">
								<g>
									<g>
										<g>
											<polyline fill="#808080" points="366.7,598.7 352,590.1 337.4,598.6 352.1,607.1 366.7,598.7 											"/>
										</g>
									</g>
								</g>
							</g>
						</g>
					</g>
				</g>
			</g>
			<g>
				<g>
					<g enable-background="new    ">
						<g>
							<defs>
								<polygon id="SVGID_27_" points="353.1,625.9 353.1,609 367.8,600.5 367.9,617.3 								"/>
							</defs>
							<clipPath id="SVGID_28_">
								<use xlink:href="#SVGID_27_"  overflow="visible"/>
							</clipPath>
							<g clip-path="url(#SVGID_28_)">
								<g>
									<g>
										<g>
											<polyline fill="#808080" points="367.8,600.5 353.1,609 353.1,625.9 367.9,617.3 367.8,600.5 											"/>
										</g>
									</g>
								</g>
							</g>
						</g>
					</g>
				</g>
			</g>
		</g>
	</g>
	<g id="Icons_12_">
		<g>
			<g>
				<g>
					<g enable-background="new    ">
						<g>
							<defs>
								<polygon id="SVGID_29_" points="336.1,553.3 336.2,536.5 350.9,545 350.9,561.9 								"/>
							</defs>
							<clipPath id="SVGID_30_">
								<use xlink:href="#SVGID_29_"  overflow="visible"/>
							</clipPath>
							<g clip-path="url(#SVGID_30_)">
								<g>
									<g>
										<g>
											<polyline fill="#009650" points="350.9,545 336.2,536.5 336.1,553.3 350.9,561.9 350.9,545 											"/>
										</g>
									</g>
								</g>
							</g>
						</g>
					</g>
				</g>
			</g>
			<g>
				<g>
					<g enable-background="new    ">
						<g>
							<defs>
								<polygon id="SVGID_31_" points="337.4,534.6 352,526.1 366.7,534.7 352.1,543.1 								"/>
							</defs>
							<clipPath id="SVGID_32_">
								<use xlink:href="#SVGID_31_"  overflow="visible"/>
							</clipPath>
							<g clip-path="url(#SVGID_32_)">
								<g>
									<g>
										<g>
											<polyline fill="#009650" points="366.7,534.7 352,526.1 337.4,534.6 352.1,543.1 366.7,534.7 											"/>
										</g>
									</g>
								</g>
							</g>
						</g>
					</g>
				</g>
			</g>
			<g>
				<g>
					<g enable-background="new    ">
						<g>
							<defs>
								<polygon id="SVGID_33_" points="353.1,561.9 353.1,545 367.8,536.5 367.9,553.3 								"/>
							</defs>
							<clipPath id="SVGID_34_">
								<use xlink:href="#SVGID_33_"  overflow="visible"/>
							</clipPath>
							<g clip-path="url(#SVGID_34_)">
								<g>
									<g>
										<g>
											<polyline fill="#009650" points="367.8,536.5 353.1,545 353.1,561.9 367.9,553.3 367.8,536.5 											"/>
										</g>
									</g>
								</g>
							</g>
						</g>
					</g>
				</g>
			</g>
		</g>
	</g>
	<g>
		<defs>
			<rect id="SVGID_35_" x="266.6" y="656.1" width="42" height="32.2"/>
		</defs>
		<clipPath id="SVGID_36_">
			<use xlink:href="#SVGID_35_"  overflow="visible"/>
		</clipPath>
		<path clip-path="url(#SVGID_36_)" fill="#FFFFFF" d="M276.7,656.1h-10.1l0.5,3.2l8.1,0.9l6.1,22.3c-0.5,0.6-0.7,1.3-0.7,2.2
			c0,2,1.6,3.6,3.6,3.6c2,0,3.6-1.6,3.6-3.6c0-0.4-0.1-0.7-0.2-1h11.8c-0.1,0.3-0.1,0.7-0.1,1c0,2,1.6,3.6,3.6,3.6
			c2,0,3.6-1.6,3.6-3.6c0-1.9-1.6-3.5-3.5-3.6h0h-19.2l-1.1-3.9l22.2-2.5l4-14.5h-30.8L276.7,656.1z"/>
	</g>
	<polygon fill="#FFFFFF" points="364.4,654.8 348.2,678.8 339.1,668.4 334.2,672.7 348.7,689.5 348.8,689.4 348.9,689.5 
		352.6,683.9 369.8,658.4 	"/>
	<polygon fill="#FFFFFF" points="426,666.1 416,673.3 406,666.1 406,668.6 406,670.9 416,678.1 426,670.9 	"/>
	<polygon fill="#FFFFFF" points="470,677.9 480,670.7 490,677.9 490,675.4 490,673.1 480,665.9 470,673.1 	"/>
</g>
</svg>
